<svg id="Ebene_1" data-name="Ebene 1"
  xmlns="http://www.w3.org/2000/svg"
  xmlns:xlink="http://www.w3.org/1999/xlink" width="100" height="100" viewBox="0 0 100 100">
  <defs>
    <style>.cls-1{fill:#1e398f;}.cls-2{clip-path:url(#clip-path);}.cls-3{fill:#fff;}</style>
    <clipPath id="clip-path">
      <rect class="cls-1" width="100" height="100"/>
    </clipPath>
  </defs>
  <rect class="cls-1" width="100" height="100"/>
  <g class="cls-2">
    <path class="cls-3" d="M49.992,63.5741h-.0079c-7.5984-.006-16.4217-1.4033-23.36-2.7987-6.932-1.4071-11.9179-2.7849-12.0277-2.8164h-.0019a2.13,2.13,0,0,1-1.09-.77,2.1622,2.1622,0,0,1-.4939-1.2975c0-.0216.002-.0412.002-.0568V44.26c-.002-.0353,0-.0568-.002-.0627a2.156,2.156,0,0,1,.4939-1.2955,2.1068,2.1068,0,0,1,1.0956-.7721l.0078-.0019h.0078c.004-.004.0079-.004.0138-.0079a.1812.1812,0,0,0,.047-.0118c.0411-.01.1-.0254.1784-.049.1528-.0412.3782-.1019.67-.1784.584-.1528,1.4347-.3723,2.4969-.6349,2.13-.5253,5.127-1.2249,8.6018-1.9227C33.5664,37.92,42.3955,36.52,50,36.5122h.047c7.6082.004,16.4492,1.4033,23.3988,2.81,6.7655,1.3622,11.7317,2.73,11.9885,2.7968h.004a2.1083,2.1083,0,0,1,1.1288.7819,2.1679,2.1679,0,0,1,.4939,1.2955V55.8914a2.1641,2.1641,0,0,1-.4939,1.2975,2.1209,2.1209,0,0,1-1.1034.7721l-.0079.004-.0156.0019c-.01.004-.0255.0079-.0451.0138-.0411.0136-.1.0254-.1783.047-.1509.0451-.3783.1019-.67.1823-.586.1528-1.4346.37-2.4969.6349-2.1323.5234-5.1269,1.2249-8.6038,1.9265-6.9438,1.3994-15.7749,2.8007-23.3753,2.8027H49.992ZM26.9793,41.0807c-6.5479,1.319-11.3927,2.638-11.8455,2.7654l-.0215.0058-.0412.01-.0137.01a.7485.7485,0,0,0-.1059.0942.7865.7865,0,0,0-.143.2371V55.8816a.1944.1944,0,0,0,.0059.0235.6307.6307,0,0,0,.0745.1333.6618.6618,0,0,0,.1783.1881l.049.01.0255.01.0137.0019c.0372.0137.0941.0255.1705.049.149.0412.3685.098.6585.1744.5742.1529,1.4131.37,2.47.6291,2.1107.5194,5.08,1.2172,8.5254,1.911,6.879,1.3934,15.6475,2.7712,23.0382,2.7712h.0391c7.3887,0,16.1551-1.3817,23.0343-2.7752,6.46-1.2974,11.2555-2.6027,11.8258-2.7595h.01l.049-.0157.0255-.0059c.0039,0,.0078-.0039.01-.0058a.5491.5491,0,0,0,.1077-.0961.7033.7033,0,0,0,.1451-.2469V44.2126a.1256.1256,0,0,0-.0059-.0294,1.2223,1.2223,0,0,0-.0725-.1333.7166.7166,0,0,0-.1842-.1882.04.04,0,0,0-.0157-.0038.0507.0507,0,0,1-.0157-.006.5057.5057,0,0,0-.0509-.01,1.5459,1.5459,0,0,0-.1706-.0471c-.1489-.0411-.3723-.1-.66-.1763-.5762-.1529-1.4131-.37-2.4675-.6272-2.1108-.5233-5.0839-1.2171-8.5293-1.9109-6.883-1.3915-15.65-2.7713-23.0441-2.7713h-.0156c-7.3966,0-16.1689,1.38-23.0519,2.7713M25.0527,51.79H23.185L22.77,53.789H20.1373l1.4739-6.9144h4.4253a2.0748,2.0748,0,0,1,2.2186,2.0029A2.9092,2.9092,0,0,1,25.0527,51.79m-.633-3.32h-.5469l-.3664,1.7227h.5624c.7448,0,1.4915-.1528,1.4915-1.0269,0-.59-.7055-.6958-1.1406-.6958m9.1241,2.1088c.78.194.8721.57,1.0289,1.2405l.4527,1.97H32.27l-.2489-1.5012c-.0823-.5077-.0412-.8389-.7291-.8389h-.38l-.4978,2.34H27.7818l1.47-6.9144H33.534c.9662,0,2.25.3233,2.25,1.6169,0,1.36-1.2112,1.9108-2.24,2.0873m-1.3582-2.16h-.684l-.31,1.4738h.6409c.6566,0,1.2661-.143,1.2661-.8623,0-.5253-.539-.6115-.9133-.6115m8.38,5.3707-.1236-1.4934H38.1936l-.77,1.4934H34.709l3.8962-6.9144h3.6512L43.252,53.79Zm-.5488-7.4534H38.2328l.32-1.5247H40.34Zm.1352,1.9991-1.1837,2.2969H40.34Zm2.4773-1.9991H40.8453l.3234-1.5247H42.95Zm12.5011.5394H52.7663L50.93,51.4164l-.1215-4.5409H48.2547L46.17,51.4164l.1254-4.5409H43.8078l.2469,6.9143h2.8615l2.0755-4.57.1234,4.57h2.8634Zm6.6034,0H55.742L54.2682,53.79h6.054l.3567-1.66h-3.4l.2038-.9819h3.1848L61.016,49.51H57.8371l.2058-.9761h3.34Zm10.6866,0H68.5021l-1.75,4.0824-.01-4.0824h-3.88L61.39,53.79h2.2519L64.79,48.3552l.2293,5.4346H67.187l2.53-5.4346L68.5785,53.79H70.952ZM77.0806,53.79l-.1255-1.4933h-2.25L73.937,53.79H71.2186l3.9021-6.9144H78.768l.9956,6.9144Zm-.4135-5.4543L75.4813,50.633h1.37Z"/>
  </g>
</svg>
